<svg xmlns="http://www.w3.org/2000/svg" fill="none" viewBox="0 0 1024 1024" height="1024" width="1024">
<rect fill="#6D6D6D" rx="50.1854" height="159.209" width="100.371" y="102.399" x="456.002"></rect>
<path fill="url(#paint0_linear_469_2701)" d="M513.684 199.384C395.919 199.083 168.999 211.007 104.123 350.252C33.1711 502.539 47.0154 852.107 173.344 897.101C239.546 920.68 330.403 937.917 483.691 941.433V942.095C493.931 942.095 503.926 942.041 513.684 941.936C523.442 942.041 533.437 942.095 543.678 942.095V941.433C696.965 937.917 787.822 920.68 854.024 897.101C980.353 852.107 994.197 502.539 923.246 350.252C858.37 211.007 631.45 199.083 513.684 199.384Z"></path>
<path fill="url(#paint1_linear_469_2701)" d="M104.123 350.252C168.999 211.007 395.919 199.083 513.684 199.384C631.45 199.083 858.37 211.007 923.246 350.252C994.197 502.539 980.353 852.107 854.024 897.101C787.822 920.68 696.965 937.917 543.678 941.433V942.095C533.437 942.095 523.442 942.041 513.684 941.936C503.926 942.041 493.931 942.095 483.691 942.095V941.433C330.403 937.917 239.546 920.68 173.344 897.101C47.0154 852.107 33.1711 502.539 104.123 350.252ZM126.01 393.91C187.327 268.675 401.803 257.95 513.11 258.222C624.417 257.95 838.893 268.675 900.211 393.91C967.271 530.874 954.186 845.269 834.785 885.736C772.214 906.942 686.34 922.444 541.459 925.607V926.202C531.78 926.202 522.333 926.154 513.11 926.059C503.887 926.154 494.44 926.202 484.761 926.202V925.607C339.88 922.444 254.006 906.942 191.435 885.736C72.034 845.269 58.949 530.874 126.01 393.91Z" clip-rule="evenodd" fill-rule="evenodd"></path>
<path fill="url(#paint2_linear_469_2701)" d="M513.118 237.464C407.219 237.206 203.163 247.375 144.824 366.121C81.0216 495.989 93.4709 794.094 207.071 832.464C266.602 852.571 348.305 867.271 486.147 870.27V870.834C495.355 870.834 504.343 870.788 513.118 870.698C521.893 870.788 530.881 870.834 540.09 870.834V870.27C677.932 867.271 759.634 852.571 819.166 832.464C932.766 794.094 945.215 495.989 881.412 366.121C823.073 247.375 619.017 237.206 513.118 237.464Z"></path>
<path fill="#363636" d="M513.1 417.381C436.943 417.241 290.197 422.798 248.242 487.686C202.359 558.652 211.312 721.551 293.007 742.518C335.819 753.506 394.575 761.538 493.704 763.177V763.485C500.326 763.485 506.79 763.46 513.1 763.411C519.411 763.46 525.874 763.485 532.497 763.485V763.177C631.626 761.538 690.382 753.506 733.194 742.518C814.889 721.551 823.842 558.652 777.959 487.686C736.004 422.798 589.258 417.241 513.1 417.381Z"></path>
<path fill="black" d="M251.723 491.067C293.677 426.179 440.424 420.622 516.581 420.762C592.738 420.622 739.485 426.179 781.439 491.067C801.206 521.639 810.796 569.274 808.776 615.272C807.123 577.334 797.743 540.51 781.439 515.294C739.485 450.406 592.738 444.849 516.581 444.99C440.424 444.849 293.677 450.406 251.723 515.294C235.419 540.51 226.039 577.334 224.385 615.272C222.366 569.274 231.956 521.639 251.723 491.067Z"></path>
<path fill="url(#paint3_linear_469_2701)" d="M201.222 460.263C250.624 379.152 423.42 372.206 513.096 372.382C602.773 372.206 775.569 379.152 824.971 460.263C879 548.97 868.457 752.594 772.26 778.803C721.848 792.537 652.662 802.578 535.936 804.627V805.012C528.138 805.012 520.527 804.981 513.096 804.919C505.666 804.981 498.055 805.012 490.257 805.012V804.627C373.531 802.578 304.345 792.537 253.933 778.803C157.736 752.594 147.193 548.97 201.222 460.263ZM248.238 487.68C290.193 422.791 436.939 417.235 513.096 417.375C589.254 417.235 736 422.791 777.955 487.68C823.838 558.646 814.885 721.545 733.19 742.512C690.378 753.5 631.622 761.532 532.493 763.171V763.479C525.871 763.479 519.407 763.454 513.096 763.405C506.786 763.454 500.322 763.479 493.7 763.479V763.171C394.571 761.532 335.815 753.5 293.003 742.512C211.308 721.545 202.355 558.646 248.238 487.68Z" clip-rule="evenodd" fill-rule="evenodd"></path>
<rect fill="white" rx="76.1434" height="196.364" width="155.737" y="474.899" x="330.16"></rect>
<circle fill="black" r="16.9279" cy="532.447" cx="408.049"></circle>
<rect stroke-width="6.92213" stroke="black" rx="76.1434" height="196.364" width="155.737" y="474.899" x="330.16"></rect>
<rect fill="white" rx="76.1434" height="196.364" width="155.737" y="474.898" x="553.641"></rect>
<circle fill="black" r="16.9279" cy="532.446" cx="631.529"></circle>
<rect stroke-width="6.92213" stroke="black" rx="76.1434" height="196.364" width="155.737" y="474.898" x="553.641"></rect>
<ellipse fill-opacity="0.16" fill="url(#paint4_linear_469_2701)" ry="86.5266" rx="418.789" cy="288.526" cx="501.031"></ellipse>
<ellipse fill-opacity="0.4" fill="white" ry="24.2274" rx="183.436" cy="264.308" cx="521.839"></ellipse>
<path fill-opacity="0.13" fill="white" d="M168.762 600.451C168.743 587.7 169.384 574.945 170.669 562.44L224.089 556.022C222.091 568.423 220.959 581.288 220.724 594.208L168.762 600.451ZM836.462 482.45C841.141 493.642 845.065 505.884 848.209 518.82L795.095 525.202C790.999 511.87 785.734 499.681 779.352 489.311L836.462 482.45ZM700.993 388.913C752.952 401.001 799.218 421.457 822.531 455.884L755.613 463.923C697.579 420.871 578.978 416.734 513.137 416.856C497.69 416.827 479.338 417.033 459.545 417.921L700.993 388.913ZM209.731 447.934C206.607 451.685 203.776 455.618 201.263 459.744C189.113 479.692 180.229 505.451 174.849 533.698L230.638 526.995C235.087 512.022 240.992 498.432 248.279 487.161C267.088 458.071 306.957 440.905 352.085 430.832L209.731 447.934Z" clip-rule="evenodd" fill-rule="evenodd"></path>
<g clip-path="url(#clip0_469_2701)">
<path fill="#27C7EA" d="M723.251 614.222C723.847 612.431 726.866 613.034 726.727 614.916C722.084 677.795 758.121 698.039 749.768 739.849C744.547 765.984 718.391 782.8 692.422 777.612C666.464 772.426 648.776 746.851 653.998 720.716C662.34 678.903 703.389 674.06 723.251 614.222ZM683.857 758.164C686.212 758.634 688.517 757.034 689.004 754.596C689.491 752.158 687.978 749.795 685.623 749.324C679.751 748.151 675.955 742.257 677.169 736.178C677.656 733.739 676.143 731.376 673.788 730.906C672.024 730.554 670.277 731.359 669.317 732.818C668.993 733.303 668.751 733.87 668.628 734.482C666.465 745.421 673.285 756.052 683.857 758.164Z"></path>
</g>
<g clip-path="url(#clip1_469_2701)">
<path fill="#27C7EA" d="M332.851 634.319C332.607 633.52 333.853 632.964 334.285 633.68C348.717 657.602 366.932 655.687 374.625 672.943C379.433 683.729 374.285 696.51 363.568 701.288C352.855 706.064 339.907 701.349 335.099 690.563C327.402 673.31 341.001 661.041 332.851 634.319ZM355.488 696.451C356.46 696.018 356.884 694.849 356.435 693.843C355.987 692.837 354.834 692.37 353.862 692.803C351.439 693.884 348.556 692.726 347.437 690.216C346.989 689.21 345.836 688.743 344.864 689.177C344.137 689.501 343.711 690.24 343.738 691.014C343.745 691.272 343.803 691.539 343.915 691.792C345.936 696.301 351.125 698.397 355.488 696.451Z"></path>
</g>
<defs>
<linearGradient gradientUnits="userSpaceOnUse" y2="942.095" x2="513.684" y1="199.379" x1="513.684" id="paint0_linear_469_2701">
<stop stop-color="#4E4E4E"></stop>
<stop offset="1"></stop>
</linearGradient>
<linearGradient gradientUnits="userSpaceOnUse" y2="942.095" x2="513.684" y1="199.379" x1="513.684" id="paint1_linear_469_2701">
<stop stop-color="#4D4D4D"></stop>
<stop stop-color="#272727" offset="1"></stop>
</linearGradient>
<linearGradient gradientUnits="userSpaceOnUse" y2="870.833" x2="513.118" y1="237.459" x1="513.118" id="paint2_linear_469_2701">
<stop stop-opacity="0" stop-color="#434343"></stop>
<stop offset="0.53125"></stop>
</linearGradient>
<linearGradient gradientUnits="userSpaceOnUse" y2="805.012" x2="513.096" y1="372.379" x1="513.096" id="paint3_linear_469_2701">
<stop stop-color="#3C3C3C"></stop>
<stop offset="1"></stop>
</linearGradient>
<linearGradient gradientUnits="userSpaceOnUse" y2="375.052" x2="501.031" y1="262.568" x1="501.031" id="paint4_linear_469_2701">
<stop stop-opacity="0" stop-color="white"></stop>
<stop stop-color="white" offset="1"></stop>
</linearGradient>
<clipPath id="clip0_469_2701">
<rect transform="matrix(-0.980622 -0.195911 -0.195907 0.980622 805.561 628.38)" fill="white" height="169.279" width="169.279"></rect>
</clipPath>
<clipPath id="clip1_469_2701">
<rect transform="matrix(-0.913352 0.407171 0.407171 0.913352 366.201 618.399)" fill="white" height="75.0089" width="75.0089"></rect>
</clipPath>
</defs>
</svg>
